<svg width="178" height="22" viewBox="0 0 178 22" fill="none" xmlns="http://www.w3.org/2000/svg">
<path d="M18.275 21.662L11.291 16.629L4.232 21.55L6.861 13.356L0 8.16L8.605 8.129L11.426 0L14.114 8.174L22.721 8.345L15.774 13.427L18.275 21.662Z" fill="#FFC100"/>
<path d="M56.9194 21.662L49.9404 16.629L42.8794 21.55L45.5094 13.356L38.6484 8.16L47.2524 8.129L50.0724 0L52.7624 8.174L61.3664 8.345L54.4234 13.427L56.9194 21.662Z" fill="#FFC100"/>
<path d="M95.5689 21.662L88.5909 16.629L81.5279 21.55L84.1599 13.356L77.2969 8.16L85.9029 8.129L88.7249 0L91.4129 8.174L100.018 8.345L93.0719 13.427L95.5689 21.662Z" fill="#FFC100"/>
<path d="M134.218 21.662L127.238 16.629L120.175 21.55L122.806 13.356L115.945 8.16L124.551 8.129L127.371 0L130.061 8.174L138.665 8.345L131.721 13.427L134.218 21.662Z" fill="#FFC100"/>
<path d="M172.866 21.662L165.885 16.629L158.824 21.55L161.454 13.356L154.594 8.16L163.196 8.129L166.018 0L168.71 8.174L177.314 8.345L170.368 13.427L172.866 21.662Z" fill="#FFC100"/>
</svg>
