<svg width="178" height="23" viewBox="0 0 178 23" fill="none" xmlns="http://www.w3.org/2000/svg">
<path d="M18.275 22.6239L11.291 17.5909L4.232 22.5109L6.861 14.3169L0 9.12094L8.605 9.08994L11.426 0.960938L14.114 9.13594L22.721 9.30594L15.774 14.3879L18.275 22.6239Z" fill="#FFC100"/>
<path d="M56.9194 22.6239L49.9404 17.5909L42.8794 22.5109L45.5094 14.3169L38.6484 9.12094L47.2524 9.08994L50.0724 0.960938L52.7624 9.13594L61.3664 9.30594L54.4234 14.3879L56.9194 22.6239Z" fill="#FFC100"/>
<path d="M95.5689 22.6239L88.5909 17.5909L81.5279 22.5109L84.1599 14.3169L77.2969 9.12094L85.9029 9.08994L88.7249 0.960938L91.4129 9.13594L100.018 9.30594L93.0719 14.3879L95.5689 22.6239Z" fill="#FFC100"/>
<path d="M134.218 22.6239L127.238 17.5909L120.175 22.5109L122.806 14.3169L115.945 9.12094L124.551 9.08994L127.371 0.960938L130.061 9.13594L138.665 9.30594L131.721 14.3879L134.218 22.6239Z" fill="#FFC100"/>
<path d="M172.866 22.6239L165.885 17.5909L158.824 22.5109L161.454 14.3169L154.594 9.12094L163.196 9.08994L166.018 0.960938L168.71 9.13594L177.314 9.30594L170.368 14.3879L172.866 22.6239Z" fill="#758891"/>
</svg>
