<svg width="42" height="42" viewBox="0 0 42 42" fill="none" xmlns="http://www.w3.org/2000/svg">
<path d="M41.7385 13.438C41.7385 17.128 41.7908 20.6212 41.7123 24.1144C41.6861 25.369 40.6132 25.6642 39.4618 25.7134C38.1534 25.7626 37.4992 25.0246 37.2899 23.9668C37.1329 23.1796 37.2114 22.3432 37.2114 21.5068C37.1852 20.1292 36.2955 19.465 34.9609 19.4404C33.6001 19.3912 32.7104 20.0062 32.7366 21.433C32.7366 23.0812 32.7366 24.7048 32.6842 26.353C32.6057 28.0996 31.716 28.9606 30.0674 28.8868C28.3141 28.813 27.9478 27.706 27.9216 26.353C27.8954 24.877 27.8431 23.4256 27.8693 21.9496C27.8954 20.5228 27.4244 19.5142 25.7496 19.4158C24.0225 19.2928 23.473 20.2768 23.3683 21.679C23.316 22.3186 23.3683 23.0812 23.0019 23.5486C22.5309 24.1636 21.6674 24.9754 21.0132 24.9262C20.2543 24.9016 19.3645 24.1636 18.8673 23.4994C18.4748 23.0074 18.5795 22.1464 18.5272 21.4576C18.4487 20.2276 17.7945 19.4404 16.486 19.342C15.0729 19.2436 14.2094 20.0308 14.0785 21.31C13.9215 22.7614 14 24.2374 13.9739 25.6888C13.9215 27.337 13.058 28.2226 11.5664 28.198C9.94395 28.1734 9.47291 27.1648 9.39441 25.861C9.3159 24.4096 9.28974 22.9336 9.2374 21.4822C9.18507 20.2768 8.55702 19.465 7.22244 19.342C5.78318 19.219 5.05046 19.9816 4.81495 21.2608C4.71027 21.8266 4.68411 22.5646 4.31775 22.909C3.74204 23.4748 2.72148 24.2374 2.17195 24.0898C1.36073 23.8684 0.23549 22.9336 0.183153 22.2202C-0.0523619 19.3912 0.0784814 16.513 0.0784814 13.4626C6.93459 15.6766 13.9215 15.898 20.9347 15.8734C27.9478 15.898 34.9347 15.898 41.7385 13.438Z" fill="#FBF6F3"/>
<path d="M41.817 32.6998C41.817 34.5694 41.8955 36.5374 41.7647 38.5054C41.7385 38.9482 40.9796 39.6124 40.4563 39.7108C36.8189 40.4242 33.1815 41.359 29.4917 41.6296C20.8562 42.2446 12.1944 42.2446 3.66357 40.4488C0.235515 39.7354 0 39.3664 0 36.0946C0 34.8892 0 33.6838 0 32.626C14.0524 35.7502 27.817 35.824 41.817 32.6998Z" fill="#FBF6F3"/>
<path d="M0.26148 25.0985C3.92505 25.9349 5.05029 25.2953 6.14936 21.9989C6.30637 21.5315 6.80357 21.1625 7.11759 20.7443C7.40544 21.2609 7.90264 21.7283 7.95497 22.2695C8.08581 23.5979 7.98115 24.9509 8.05965 26.3039C8.16433 28.0751 9.52508 29.3297 11.4092 29.4773C13.241 29.6249 14.9419 28.5671 15.2298 26.8451C15.4915 25.2461 15.3868 23.5733 15.5438 21.9497C15.5961 21.5069 15.9887 21.1133 16.198 20.6951C16.4859 21.1133 16.8784 21.4823 17.0354 21.9497C17.3494 22.7615 17.4279 23.6471 17.7681 24.4589C18.4485 26.1071 19.9401 26.4515 21.5887 26.3039C23.2111 26.1563 24.1532 25.1969 24.4934 23.7455C24.7027 22.8353 24.7812 21.9005 24.9121 20.9411C26.0111 20.4737 26.613 20.7935 26.6392 21.9005C26.6653 23.3519 26.5868 24.8279 26.5607 26.2793C26.5607 28.6163 28.1308 30.2153 30.3551 30.1907C32.37 30.1661 33.8616 28.6409 33.8878 26.4515C33.914 24.9263 33.8355 23.4011 33.9401 21.9005C33.9663 21.5069 34.5682 21.1379 34.9084 20.7443C35.1962 21.1133 35.5626 21.4577 35.7458 21.8759C35.8766 22.1711 35.7981 22.5647 35.8243 22.9091C36.0074 26.1071 38.1271 27.5831 40.9794 26.6975C41.1888 26.6237 41.4505 26.6483 42 26.5745C41.8953 27.9521 41.8953 29.2313 41.6598 30.4613C41.5813 30.8303 40.9533 31.2731 40.4822 31.3469C37.2112 32.0357 33.9663 33.0443 30.6691 33.2165C22.2952 33.6593 13.869 33.9299 5.54749 32.3801C-0.759082 31.2485 -0.104877 31.4207 0.26148 25.0985Z" fill="#FBF6F3"/>
<path d="M0.758545 11.5931C2.695 11.0765 4.10809 10.5845 5.59969 10.3139C7.30063 9.99409 9.02775 9.77269 10.7549 9.60049C12.325 9.45289 15.2035 9.87109 15.2035 9.87109C15.2035 9.87109 16.3287 10.4615 16.8783 10.9781C19.0241 13.0199 23.6297 12.4049 26.011 10.5107C26.7699 9.92029 27.9736 9.40369 28.9157 9.50209C32.2914 9.82189 35.6671 10.3877 39.0167 10.9289C39.6447 11.0273 40.2204 11.4209 40.8485 11.7161C37.6821 15.0371 6.54175 15.3077 0.758545 11.5931Z" fill="#FBF6F3"/>
<path d="M20.5159 3.22901C20.2804 1.99901 20.0972 1.0642 19.914 0.1048C20.3327 0.0309993 20.542 -0.0182009 20.5682 0.00639921C21.6411 1.6792 23.0804 2.76161 24.9645 3.74561C26.5869 4.60662 26.3514 6.74682 25.7234 8.41963C25.0953 10.117 23.5776 10.7812 21.7719 10.8796C19.7308 10.978 17.6897 10.8796 16.5383 8.93623C15.5962 7.33722 15.6224 5.66442 16.6168 4.09001C17.4542 2.73701 18.7888 2.73701 20.5159 3.22901Z" fill="#FBF6F3"/>
</svg>
