<svg width="32" height="33" viewBox="0 0 32 33" fill="none" xmlns="http://www.w3.org/2000/svg">
<path d="M30.8458 10.5025C30.8458 13.3865 30.8845 16.1166 30.8265 18.8467C30.8071 19.8273 30.0142 20.058 29.1633 20.0964C28.1964 20.1349 27.7129 19.5581 27.5582 18.7314C27.4421 18.1161 27.5001 17.4624 27.5001 16.8088C27.4808 15.7321 26.8233 15.213 25.837 15.1937C24.8314 15.1553 24.1738 15.636 24.1932 16.7511C24.1932 18.0392 24.1932 19.3082 24.1545 20.5963C24.0965 21.9614 23.4389 22.6343 22.2206 22.5766C20.9249 22.519 20.6541 21.6538 20.6348 20.5963C20.6154 19.4428 20.5768 18.3084 20.5961 17.1548C20.6154 16.0397 20.2673 15.2514 19.0296 15.1745C17.7532 15.0784 17.3471 15.8474 17.2698 16.9433C17.2311 17.4432 17.2698 18.0392 16.999 18.4045C16.6509 18.8852 16.0127 19.5197 15.5293 19.4812C14.9684 19.462 14.3109 18.8852 13.9435 18.3661C13.6534 17.9816 13.7307 17.3086 13.692 16.7703C13.634 15.809 13.1506 15.1937 12.1836 15.1168C11.1393 15.0399 10.5011 15.6552 10.4044 16.6549C10.2884 17.7893 10.3464 18.9429 10.327 20.0772C10.2884 21.3654 9.65018 22.0575 8.54785 22.0383C7.34883 22.0191 7.00072 21.2308 6.9427 20.2118C6.88468 19.0775 6.86535 17.9239 6.82667 16.7895C6.78799 15.8474 6.32385 15.213 5.33756 15.1168C4.27391 15.0207 3.73241 15.6167 3.55836 16.6165C3.48101 17.0587 3.46167 17.6355 3.19092 17.9047C2.76546 18.3469 2.01124 18.9429 1.60512 18.8275C1.00561 18.6545 0.174026 17.9239 0.135347 17.3663C-0.0387044 15.1553 0.0579922 12.9058 0.0579922 10.5218C5.12483 12.2521 10.2884 12.4252 15.4712 12.4059C20.6541 12.4252 25.8177 12.4252 30.8458 10.5025Z" fill="#FBF6F3"/>
<path d="M30.9039 25.5567C30.9039 27.0179 30.9619 28.556 30.8652 30.0941C30.8458 30.4402 30.285 30.9593 29.8982 31.0362C27.2101 31.5938 24.522 32.3244 21.7951 32.5358C15.4132 33.0165 9.01201 33.0165 2.70747 31.613C0.174052 31.0554 0 30.767 0 28.2099C0 27.2678 0 26.3258 0 25.499C10.3851 27.9408 20.5575 27.9984 30.9039 25.5567Z" fill="#FBF6F3"/>
<path d="M0.193286 19.6158C2.90076 20.2695 3.73234 19.7696 4.54458 17.1933C4.66061 16.828 5.02806 16.5396 5.26013 16.2127C5.47286 16.6165 5.8403 16.9818 5.87898 17.4048C5.97567 18.443 5.89832 19.5004 5.95634 20.5579C6.03369 21.9422 7.03932 22.9227 8.43174 23.0381C9.78547 23.1534 11.0425 22.3267 11.2552 20.9808C11.4486 19.7311 11.3713 18.4238 11.4873 17.1548C11.526 16.8087 11.8161 16.5011 11.9708 16.1743C12.1835 16.5011 12.4736 16.7895 12.5896 17.1548C12.8217 17.7893 12.8797 18.4814 13.1311 19.1159C13.6339 20.4041 14.7363 20.6732 15.9546 20.5579C17.1537 20.4425 17.8499 19.6927 18.1013 18.5583C18.256 17.847 18.314 17.1164 18.4107 16.3665C19.2229 16.0012 19.6677 16.2512 19.6871 17.1164C19.7064 18.2507 19.6484 19.4043 19.6291 20.5386C19.6291 22.3651 20.7894 23.6148 22.4332 23.5956C23.9223 23.5764 25.0247 22.3844 25.044 20.6732C25.0634 19.4812 25.0053 18.2892 25.0827 17.1164C25.102 16.8087 25.5468 16.5204 25.7982 16.2127C26.011 16.5011 26.2817 16.7703 26.4171 17.0971C26.5138 17.3279 26.4558 17.6355 26.4751 17.9046C26.6105 20.4041 28.1769 21.5576 30.2849 20.8655C30.4396 20.8078 30.633 20.827 31.0391 20.7694C30.9618 21.846 30.9618 22.8458 30.7877 23.8071C30.7297 24.0955 30.2656 24.4416 29.9175 24.4993C27.5001 25.0376 25.102 25.8259 22.6653 25.9604C16.4768 26.3065 10.2496 26.518 4.09978 25.3068C-0.560936 24.4223 -0.0774614 24.5569 0.193286 19.6158Z" fill="#FBF6F3"/>
<path d="M0.560696 9.06054C1.99179 8.65679 3.0361 8.27226 4.13843 8.06077C5.39547 7.81083 6.67185 7.63779 7.94823 7.50321C9.10857 7.38785 11.2359 7.7147 11.2359 7.7147C11.2359 7.7147 12.0675 8.17613 12.4736 8.57988C14.0594 10.1757 17.4631 9.695 19.2229 8.21458C19.7837 7.75315 20.6734 7.3494 21.3696 7.4263C23.8643 7.67625 26.359 8.11845 28.8344 8.54143C29.2986 8.61833 29.724 8.92595 30.1882 9.15667C27.8481 11.7522 4.83463 11.9637 0.560696 9.06054Z" fill="#FBF6F3"/>
<path d="M15.1618 2.52364C14.9877 1.56233 14.8524 0.831731 14.717 0.0819064C15.0264 0.0242276 15.1811 -0.0142249 15.2005 0.00500132C15.9934 1.31239 17.057 2.15834 18.4494 2.92739C19.6484 3.60031 19.4744 5.273 19.0103 6.58038C18.5461 7.90699 17.4244 8.4261 16.0901 8.50301C14.5816 8.57991 13.0732 8.50301 12.2222 6.98413C11.526 5.73443 11.5454 4.42704 12.2803 3.19656C12.8991 2.13912 13.8854 2.13912 15.1618 2.52364Z" fill="#FBF6F3"/>
</svg>
