<svg width="36" height="36" viewBox="0 0 36 36" fill="none" xmlns="http://www.w3.org/2000/svg">
<path d="M17.9831 0.0996742C17.9631 2.04864 18.7032 3.71919 20.1435 5.11131C20.4236 5.38973 20.5236 5.98635 20.5036 6.42388C20.2636 11.3361 24.3244 15.5721 29.5255 15.1346C29.8256 15.1147 30.2456 15.1743 30.4657 15.3732C32.006 16.7455 33.8264 17.0438 35.7868 16.7256C36.827 21.5184 34.0464 28.9762 27.7651 33.0333C21.2038 37.2693 12.3019 36.6727 6.50073 31.661C0.159422 26.192 -1.74098 17.7398 1.67973 10.3019C4.54032 3.99761 12.1019 -0.755485 17.9831 0.0996742ZM25.2646 28.3597C26.5849 28.3995 27.6851 27.425 27.7451 26.1522C27.8251 24.8198 26.8049 23.7061 25.4446 23.6066C24.2444 23.5271 23.0642 24.6607 23.0441 25.8937C23.0241 27.246 24.0044 28.3199 25.2646 28.3597ZM6.96083 19.5496C8.44113 19.5496 9.40133 18.6348 9.38132 17.2029C9.36132 15.8505 8.42113 14.9556 7.00084 14.9556C5.72057 14.9556 4.60034 16.0295 4.60034 17.2625C4.60034 18.5751 5.60055 19.5496 6.96083 19.5496ZM16.8429 28.2404C16.8229 26.9676 15.8427 26.0329 14.5624 26.0329C13.1221 26.0329 12.1419 27.0471 12.1819 28.4393C12.2219 29.7717 13.2621 30.786 14.5424 30.7462C15.9227 30.7064 16.8829 29.6723 16.8429 28.2404ZM20.3236 17.3222C20.3036 15.8903 19.4034 14.9556 18.0431 14.9556C16.6828 14.9755 15.6626 15.95 15.6426 17.2625C15.6426 18.6944 16.6228 19.6291 18.1031 19.5894C19.5034 19.5496 20.3436 18.6745 20.3236 17.3222ZM10.5616 7.75634C10.4616 9.08879 11.4218 10.2025 12.702 10.282C13.9823 10.3616 15.1025 9.34733 15.2025 8.05465C15.3026 6.68241 14.4624 5.74771 13.0221 5.64827C11.5418 5.52894 10.6416 6.30455 10.5616 7.75634ZM13.9223 21.2002C13.4422 20.7826 13.1821 20.4047 12.862 20.3252C12.682 20.2854 12.1619 20.8025 12.1819 21.0014C12.2219 21.2997 12.582 21.6974 12.882 21.7969C13.0821 21.8565 13.4422 21.4986 13.9223 21.2002Z" fill="#FBF6F3"/>
<path d="M28.4254 9.56611C27.1651 9.52633 26.1849 8.43253 26.205 7.10007C26.225 5.84716 27.4052 4.71358 28.6054 4.81301C29.9657 4.91245 30.9659 6.02615 30.9059 7.3586C30.8459 8.6314 29.7457 9.60588 28.4254 9.56611Z" fill="#FBF6F3"/>
<path d="M29.9856 12.0918C29.5055 12.3901 29.1454 12.7481 28.9454 12.6884C28.6453 12.589 28.2853 12.1912 28.2453 11.8929C28.2252 11.6742 28.7454 11.177 28.9254 11.2167C29.2655 11.2963 29.5255 11.6742 29.9856 12.0918Z" fill="#FBF6F3"/>
</svg>
