<svg width="42" height="42" viewBox="0 0 42 42" fill="none" xmlns="http://www.w3.org/2000/svg">
<path d="M20.9803 0.116759C20.9569 2.3998 21.8205 4.35669 23.5008 5.98743C23.8275 6.31358 23.9442 7.01247 23.9209 7.52499C23.6408 13.2792 28.3785 18.2413 34.4464 17.7288C34.7965 17.7055 35.2866 17.7754 35.5433 18.0083C37.3403 19.6158 39.4641 19.9652 41.7512 19.5925C42.9648 25.2069 39.7208 33.943 32.3927 38.6955C24.7377 43.6576 14.3523 42.9587 7.58419 37.088C0.185993 30.6815 -2.03114 20.7806 1.95968 12.0678C5.29704 4.68284 14.1189 -0.884983 20.9803 0.116759ZM29.4754 33.2208C31.0157 33.2674 32.2993 32.1259 32.3693 30.6349C32.4627 29.0741 31.2724 27.7695 29.6854 27.653C28.2851 27.5598 26.9082 28.8877 26.8848 30.3321C26.8615 31.9162 28.0051 33.1742 29.4754 33.2208ZM8.12096 22.9006C9.84799 22.9006 10.9682 21.8289 10.9449 20.1516C10.9215 18.5674 9.82465 17.5191 8.16764 17.5191C6.674 17.5191 5.36706 18.7771 5.36706 20.2215C5.36706 21.759 6.53397 22.9006 8.12096 22.9006ZM19.65 33.0811C19.6267 31.5901 18.4831 30.4952 16.9895 30.4952C15.3091 30.4952 14.1655 31.6833 14.2122 33.314C14.2589 34.8749 15.4725 36.063 16.9661 36.0164C18.5765 35.9698 19.6967 34.7584 19.65 33.0811ZM23.7109 20.2914C23.6875 18.614 22.6373 17.5191 21.0503 17.5191C19.4633 17.5424 18.2731 18.6839 18.2497 20.2215C18.2497 21.8988 19.3933 22.9937 21.1203 22.9472C22.754 22.9006 23.7342 21.8755 23.7109 20.2914ZM12.3218 9.08584C12.2051 10.6467 13.3254 11.9513 14.819 12.0445C16.3127 12.1377 17.6196 10.9495 17.7363 9.43529C17.853 7.82784 16.8728 6.73291 15.1924 6.61643C13.4654 6.47666 12.4152 7.38521 12.3218 9.08584ZM16.2426 24.8342C15.6825 24.3449 15.3791 23.9023 15.0057 23.8091C14.7957 23.7625 14.1889 24.3682 14.2122 24.6012C14.2589 24.9506 14.679 25.4166 15.0291 25.533C15.2624 25.6029 15.6825 25.1836 16.2426 24.8342Z" fill="#FBF6F3"/>
<path d="M33.1629 11.2058C31.6926 11.1592 30.549 9.87792 30.5724 8.31707C30.5957 6.8494 31.9727 5.52151 33.373 5.63799C34.9599 5.75447 36.1269 7.05907 36.0568 8.61992C35.9868 10.1109 34.7032 11.2524 33.1629 11.2058Z" fill="#FBF6F3"/>
<path d="M34.9832 14.1646C34.4231 14.5141 34.003 14.9334 33.7696 14.8635C33.4196 14.747 32.9995 14.2811 32.9528 13.9317C32.9295 13.6754 33.5363 13.093 33.7463 13.1396C34.1431 13.2328 34.4464 13.6754 34.9832 14.1646Z" fill="#FBF6F3"/>
</svg>
