<svg width="42" height="42" viewBox="0 0 42 42" fill="none" xmlns="http://www.w3.org/2000/svg">
<path d="M18.2878 15.0634C17.3771 11.8489 16.1077 10.7298 11.6649 8.96775C12.686 4.015 21.3508 0.871911 26.0696 3.87213C23.4756 8.03911 23.6688 10.7536 26.7594 12.968C29.8225 15.1587 32.6096 14.8253 37.3835 11.6584C41.302 13.8252 42.8474 17.4207 41.5504 21.3734C40.4742 24.6594 36.5005 27.2786 32.4164 27.2786C24.8002 27.3024 17.1564 27.3262 9.54011 27.2786C4.87655 27.2548 0.902855 24.207 0.130193 20.159C-0.642469 16.0635 2.08944 12.0632 6.58744 10.7536C11.113 9.42016 15.4455 10.9203 17.929 14.6825C18.0394 14.8253 18.1774 14.9444 18.2878 15.0634ZM9.071 13.5633C6.55985 13.5871 3.71755 15.9445 3.77274 17.7303C3.80034 18.0875 4.15907 18.6113 4.51781 18.7066C4.87655 18.8256 5.73199 18.6113 5.81478 18.3732C6.44946 16.8255 7.52567 15.754 9.31935 15.1825C9.5953 15.0872 9.78847 14.4205 9.73328 14.0395C9.70568 13.8014 9.15378 13.6348 9.071 13.5633Z" fill="#FBF6F3"/>
<path d="M6.64258 28.5171C16.2733 28.5171 25.6832 28.5171 35.4242 28.5171C33.9617 32.7555 32.5268 36.9463 30.9814 41.1133C30.8435 41.518 29.9052 41.9466 29.3257 41.9466C23.8067 42.0181 18.2877 42.0181 12.7687 41.9466C12.134 41.9466 11.0854 41.4942 10.9198 41.0656C9.40208 36.8987 8.04993 32.7317 6.64258 28.5171ZM16.9631 38.3273C16.2181 35.4938 15.7214 33.4698 15.0591 31.4697C14.9763 31.1601 14.1208 30.803 13.7345 30.8744C13.3482 30.9696 12.7963 31.6126 12.8791 31.9221C13.293 33.8984 13.7897 35.8748 14.3968 37.8273C14.5072 38.1607 15.3902 38.3988 15.9421 38.4702C16.4664 38.5416 16.9907 38.3273 16.9631 38.3273ZM22.5373 34.5413C22.5649 34.5413 22.5649 34.5413 22.5925 34.5413C22.5925 33.6365 22.7029 32.7317 22.5373 31.8507C22.4546 31.4459 21.8199 31.1363 21.4335 30.7792C21.0196 31.1125 20.3021 31.4459 20.2745 31.803C20.1642 33.7079 20.1918 35.6367 20.3021 37.5416C20.3297 37.8749 21.0196 38.5178 21.2404 38.4702C21.7371 38.3511 22.427 37.9464 22.4821 37.5654C22.6477 36.5653 22.5373 35.5414 22.5373 34.5413ZM29.9328 31.7554C29.6569 31.4459 29.2153 30.8268 29.0774 30.8744C28.4703 31.0649 27.6148 31.3744 27.4769 31.7792C26.8974 33.6365 26.4834 35.5176 26.0971 37.4225C26.0419 37.7559 26.4282 38.1368 26.6214 38.5178C27.1457 38.3035 28.0288 38.1607 28.1391 37.8511C28.829 35.8748 29.3257 33.8984 29.9328 31.7554Z" fill="#FBF6F3"/>
<path d="M35.482 3.45791C36.6705 5.24038 37.6741 6.99876 36.7233 9.11845C35.6405 11.479 33.0786 12.6352 30.279 11.9608C27.5587 11.2863 26.1325 9.23888 26.5022 6.42066C26.7928 4.10827 28.9849 2.5185 31.758 2.42215C32.7088 2.37398 33.6332 1.89223 34.5312 1.50683C35.5348 1.07326 36.4592 0.446984 37.4892 0.0374978C37.859 -0.107027 38.4136 0.20611 38.889 0.302459C38.7306 0.784207 38.7306 1.45865 38.3608 1.72362C37.5156 2.39806 36.512 2.85572 35.482 3.45791Z" fill="#FBF6F3"/>
</svg>
