<svg width="31" height="35" viewBox="0 0 31 35" fill="none" xmlns="http://www.w3.org/2000/svg">
<path d="M13.2273 12.5529C12.5686 9.87416 11.6505 8.94155 8.4371 7.47319C9.17559 3.3459 15.4428 0.726658 18.8558 3.22684C16.9796 6.69932 17.1193 8.96139 19.3548 10.8068C21.5702 12.6323 23.5861 12.3545 27.0391 9.71542C29.8733 11.5211 30.991 14.5174 30.0529 17.8112C29.2745 20.5495 26.4004 22.7322 23.4464 22.7322C17.9377 22.7521 12.409 22.7719 6.90024 22.7322C3.52714 22.7124 0.653024 20.1725 0.094167 16.7993C-0.46469 13.3863 1.51127 10.0527 4.76461 8.96139C8.03792 7.8502 11.1715 9.10029 12.9678 12.2354C13.0477 12.3545 13.1475 12.4537 13.2273 12.5529ZM6.56094 11.3028C4.74465 11.3227 2.68886 13.2871 2.72878 14.7753C2.74874 15.073 3.00821 15.5095 3.26768 15.5889C3.52714 15.6881 4.14588 15.5095 4.20576 15.3111C4.66482 14.0213 5.44322 13.1284 6.74057 12.6521C6.94016 12.5728 7.07988 12.0172 7.03996 11.6997C7.02 11.5013 6.62082 11.3624 6.56094 11.3028Z" fill="#FBF6F3"/>
<path d="M4.80453 23.764C11.7703 23.764 18.5764 23.764 25.622 23.764C24.5641 27.296 23.5262 30.7884 22.4085 34.2608C22.3087 34.5982 21.6301 34.9553 21.211 34.9553C17.2191 35.0149 13.2273 35.0149 9.23547 34.9553C8.77641 34.9553 8.01796 34.5783 7.89821 34.2212C6.80045 30.7487 5.82245 27.2762 4.80453 23.764ZM12.2693 31.9392C11.7304 29.578 11.3711 27.8913 10.8921 26.2245C10.8322 25.9666 10.2135 25.6689 9.93404 25.7285C9.65461 25.8078 9.25543 26.3436 9.31531 26.6015C9.6147 28.2485 9.97396 29.8954 10.4131 31.5225C10.4929 31.8003 11.1316 31.9988 11.5308 32.0583C11.91 32.1178 12.2892 31.9392 12.2693 31.9392ZM16.301 28.7842C16.321 28.7842 16.321 28.7842 16.3409 28.7842C16.3409 28.0302 16.4208 27.2762 16.301 26.542C16.2411 26.2047 15.7821 25.9467 15.5027 25.6491C15.2033 25.9269 14.6843 26.2047 14.6644 26.5023C14.5845 28.0898 14.6045 29.697 14.6843 31.2844C14.7043 31.5622 15.2033 32.098 15.3629 32.0583C15.7222 31.9591 16.2212 31.6218 16.2611 31.3043C16.3809 30.4709 16.301 29.6176 16.301 28.7842ZM21.6501 26.4626C21.4505 26.2047 21.1311 25.6888 21.0313 25.7285C20.5922 25.8872 19.9735 26.1452 19.8737 26.4825C19.4546 28.0302 19.1552 29.5978 18.8758 31.1852C18.8358 31.463 19.1153 31.7805 19.255 32.098C19.6342 31.9194 20.2729 31.8003 20.3527 31.5424C20.8517 29.8954 21.211 28.2485 21.6501 26.4626Z" fill="#FBF6F3"/>
<path d="M25.6636 2.88159C26.5232 4.36698 27.2491 5.8323 26.5614 7.5987C25.7782 9.56584 23.9253 10.5293 21.9004 9.9673C19.9328 9.40526 18.9012 7.69907 19.1687 5.35055C19.3788 3.42356 20.9643 2.09875 22.9701 2.01846C23.6578 1.97831 24.3264 1.57686 24.9759 1.25569C25.7018 0.89438 26.3704 0.372486 27.1154 0.0312482C27.3829 -0.0891888 27.784 0.171758 28.1279 0.252049C28.0132 0.653506 28.0132 1.21555 27.7458 1.43635C27.1345 1.99839 26.4086 2.37977 25.6636 2.88159Z" fill="#FBF6F3"/>
</svg>
