<svg width="43" height="42" viewBox="0 0 43 42" fill="none" xmlns="http://www.w3.org/2000/svg">
<path d="M22.4478 32.1056C21.5316 32.7734 20.9868 33.4413 20.541 33.3918C20.0953 33.3423 19.4514 32.5261 19.4514 32.0561C19.4514 31.6357 20.1696 30.8936 20.6153 30.8441C21.0611 30.7947 21.5563 31.4625 22.4478 32.1056Z" fill="#FBF6F3"/>
<path d="M33.2947 26.1942C32.4032 26.8126 31.7346 27.5299 31.4622 27.4062C30.8678 27.1341 30.4716 26.4416 29.9763 25.9221C30.4468 25.5758 30.9421 24.9327 31.3879 24.9575C31.9079 24.9575 32.4032 25.5758 33.2947 26.1942Z" fill="#FBF6F3"/>
<path d="M31.561 7.66771C30.6695 8.33554 30.199 8.95391 29.6542 9.02812C29.2828 9.07759 28.3913 8.21187 28.4656 8.03873C28.6884 7.42036 29.1589 6.72779 29.7037 6.45571C29.9762 6.3073 30.6695 7.04934 31.561 7.66771Z" fill="#FBF6F3"/>
<path d="M42.3334 21.074C42.3087 32.6993 32.6755 42.0738 20.8136 41.9996C9.81849 41.9254 0.259635 32.1057 0.333926 20.9009C0.408218 9.27556 9.79373 -0.0246855 21.4575 4.92233e-05C33.0718 4.92233e-05 42.3582 9.3745 42.3334 21.074ZM39.5847 20.0104C39.0894 12.9858 35.7215 7.79148 29.1838 4.6007C22.9681 1.55834 16.8019 2.05303 11.1062 5.93638C5.48481 9.74552 3.08272 15.2861 3.10748 21.9645C3.10748 23.4733 3.87516 24.5369 5.03906 25.5263C6.35155 26.6393 7.6145 27.9503 8.506 29.4096C9.37274 30.8442 10.289 31.6357 11.9977 31.4626C14.276 31.2647 16.158 31.8583 17.842 33.6392C19.8231 35.717 24.4044 35.6922 25.8407 33.6887C27.0294 32.0315 28.54 31.2647 30.4468 31.2152C32.7746 31.1658 33.988 29.8796 34.9043 27.8761C35.4739 26.6641 36.4149 25.3778 37.5045 24.6853C39.3865 23.498 39.758 21.9397 39.5847 20.0104Z" fill="#FBF6F3"/>
<path d="M29.9516 20.9255C30.3231 25.3283 26.1627 29.6322 21.2347 29.6816C17.5201 29.7064 12.7407 26.2188 12.7407 21.0245C12.7407 15.8797 16.9753 12.2189 21.21 12.3179C26.3361 12.4415 29.9764 15.9539 29.9516 20.9255ZM21.4081 15.1376C18.0897 15.1376 15.44 17.7348 15.44 20.9998C15.44 24.24 18.164 26.9361 21.4328 26.9113C24.5036 26.9113 27.2771 24.1411 27.3266 21.0492C27.3762 17.7595 24.7512 15.1376 21.4081 15.1376Z" fill="#FBF6F3"/>
<path d="M15.4398 13.2825C14.8207 12.3426 14.1769 11.7985 14.2016 11.3285C14.2511 10.8338 14.9693 10.4133 15.3903 9.94336C15.836 10.3886 16.5542 10.8091 16.6285 11.3038C16.7028 11.7737 16.0589 12.3426 15.4398 13.2825Z" fill="#FBF6F3"/>
<path d="M17.9656 6.65355C17.0989 7.37086 16.6036 8.08816 16.1083 8.08816C15.6626 8.08816 14.9444 7.39559 14.8454 6.9009C14.7711 6.55461 15.4645 5.6889 15.8607 5.66416C16.3807 5.61469 16.9503 6.13412 17.9656 6.65355Z" fill="#FBF6F3"/>
<path d="M27.7227 9.79517C28.3666 10.6114 29.1095 11.205 29.0105 11.5019C28.7876 12.0955 28.1685 12.6644 27.5989 12.9859C27.4503 13.0601 26.3855 12.1944 26.435 11.8481C26.5093 11.2298 27.1284 10.6856 27.7227 9.79517Z" fill="#FBF6F3"/>
<path d="M8.65461 15.7312C7.71358 16.3496 7.19354 16.9433 6.6735 16.9433C6.25251 16.9433 5.83152 16.2259 5.4353 15.8302C5.93058 15.385 6.35157 14.7419 6.92113 14.544C7.2183 14.445 7.78787 15.1129 8.65461 15.7312Z" fill="#FBF6F3"/>
<path d="M25.9894 6.38143C25.0236 7.04927 24.454 7.74184 24.0331 7.6429C23.5378 7.54396 22.9682 6.82666 22.8444 6.28249C22.7701 6.01041 23.5378 5.16943 23.934 5.16943C24.4293 5.19417 24.9493 5.73833 25.9894 6.38143Z" fill="#FBF6F3"/>
<path d="M33.0966 14.8903C32.5765 14.1235 32.0317 13.6536 32.0813 13.3073C32.2051 12.7137 32.7251 12.219 33.0718 11.6748C33.5423 12.12 34.3348 12.5405 34.3843 13.0599C34.4586 13.4804 33.7157 14.0493 33.0966 14.8903Z" fill="#FBF6F3"/>
<path d="M12.8397 27.2329C12.0224 27.9255 11.6262 28.5439 11.1805 28.5686C10.7347 28.5933 10.2395 27.9997 9.7937 27.6782C10.1899 27.1835 10.5119 26.4909 11.0071 26.2683C11.3043 26.1199 11.9234 26.7382 12.8397 27.2329Z" fill="#FBF6F3"/>
<path d="M11.7502 13.0601C12.5178 14.0247 13.2607 14.5689 13.2112 14.9894C13.1122 15.5088 12.3693 15.9293 11.8987 16.3745C11.552 15.9293 10.9825 15.5088 10.8834 15.0141C10.7844 14.5936 11.2549 14.0494 11.7502 13.0601Z" fill="#FBF6F3"/>
<path d="M34.7311 18.3779C33.8396 18.8973 33.3195 19.4662 32.8985 19.4168C32.428 19.3673 32.007 18.7242 31.5613 18.3284C32.007 17.8585 32.4032 17.067 32.8985 16.9928C33.3443 16.9433 33.8891 17.7101 34.7311 18.3779Z" fill="#FBF6F3"/>
<path d="M22.4726 10.1659C21.4821 10.7101 20.9125 11.2542 20.4668 11.18C20.0458 11.1305 19.3524 10.2154 19.4515 9.96801C19.6743 9.44858 20.2934 8.92915 20.8135 8.80548C21.1106 8.75601 21.6059 9.44858 22.4726 10.1659Z" fill="#FBF6F3"/>
<path d="M9.9175 20.9751C9.10029 21.544 8.58025 22.1624 8.15926 22.1129C7.71351 22.0634 6.99536 21.3461 6.99536 20.9504C7.02013 20.5299 7.71351 19.8126 8.15926 19.7878C8.60501 19.7136 9.10029 20.3567 9.9175 20.9751Z" fill="#FBF6F3"/>
<path d="M11.0816 11.3532C10.4625 10.537 9.76909 10.0423 9.84338 9.64653C9.94244 9.1271 10.5863 8.68187 10.9825 8.21191C11.3787 8.6324 12.0474 9.02816 12.1217 9.52285C12.1959 9.96808 11.6016 10.4875 11.0816 11.3532Z" fill="#FBF6F3"/>
<path d="M38.0987 20.4557C37.3806 21.0988 36.8605 21.8903 36.5138 21.8161C35.969 21.6924 35.5728 20.9998 35.1023 20.5546C35.4985 20.1341 35.87 19.4415 36.3157 19.4168C36.7862 19.3921 37.3063 19.961 38.0987 20.4557Z" fill="#FBF6F3"/>
</svg>
