<svg width="40" height="40" viewBox="0 0 40 40" fill="none" xmlns="http://www.w3.org/2000/svg">
<path d="M21.0614 30.4344C20.1888 31.0674 19.6699 31.7005 19.2454 31.6536C18.8208 31.6067 18.2076 30.833 18.2076 30.3875C18.2076 29.9889 18.8916 29.2855 19.3161 29.2386C19.7406 29.1917 20.2123 29.8247 21.0614 30.4344Z" fill="#FBF6F3"/>
<path d="M31.3915 24.8305C30.5425 25.4166 29.9057 26.0966 29.6463 25.9794C29.0802 25.7215 28.7029 25.0649 28.2312 24.5726C28.6793 24.2443 29.151 23.6347 29.5755 23.6581C30.0708 23.6581 30.5425 24.2443 31.3915 24.8305Z" fill="#FBF6F3"/>
<path d="M29.7406 7.26862C28.8916 7.90169 28.4435 8.48787 27.9246 8.55821C27.5708 8.6051 26.7218 7.78446 26.7926 7.62033C27.0048 7.03415 27.4529 6.37763 27.9718 6.11972C28.2312 5.97904 28.8916 6.68245 29.7406 7.26862Z" fill="#FBF6F3"/>
<path d="M40 19.9769C39.9764 30.997 30.8019 39.8835 19.5049 39.8131C9.03333 39.7428 -0.0703442 30.4343 0.000409694 19.8128C0.0711636 8.79269 9.00975 -0.0234004 20.1181 4.66608e-05C31.1793 4.66608e-05 40.0235 8.88648 40 19.9769ZM37.3821 18.9687C36.9104 12.3097 33.7029 7.38586 27.4765 4.3612C21.5568 1.47721 15.6842 1.94615 10.2597 5.62734C4.90601 9.23818 2.61831 14.4903 2.64189 20.821C2.64189 22.2513 3.37301 23.2595 4.48149 24.1974C5.73148 25.2525 6.93429 26.4952 7.78334 27.8786C8.6088 29.2385 9.48143 29.9888 11.1088 29.8247C13.2786 29.6371 15.071 30.1998 16.6748 31.888C18.5615 33.8576 22.9247 33.8341 24.2926 31.9349C25.4246 30.364 26.8633 29.6371 28.6793 29.5902C30.8963 29.5433 32.0519 28.3241 32.9246 26.4249C33.467 25.276 34.3632 24.0567 35.401 23.4002C37.1934 22.2747 37.5471 20.7976 37.3821 18.9687Z" fill="#FBF6F3"/>
<path d="M28.2077 19.8362C28.5614 24.0098 24.5992 28.0896 19.9059 28.1365C16.3682 28.1599 11.8163 24.8539 11.8163 19.93C11.8163 15.053 15.8493 11.5828 19.8823 11.6766C24.7643 11.7939 28.2313 15.1234 28.2077 19.8362ZM20.071 14.3496C16.9106 14.3496 14.3871 16.8115 14.3871 19.9065C14.3871 22.9781 16.9814 25.5338 20.0946 25.5104C23.019 25.5104 25.6605 22.8843 25.7077 19.9534C25.7549 16.835 23.2549 14.3496 20.071 14.3496Z" fill="#FBF6F3"/>
<path d="M14.3869 12.5912C13.7973 11.7002 13.1841 11.1843 13.2077 10.7388C13.2549 10.2699 13.9388 9.8713 14.3398 9.4258C14.7643 9.84785 15.4482 10.2465 15.519 10.7154C15.5897 11.1609 14.9765 11.7002 14.3869 12.5912Z" fill="#FBF6F3"/>
<path d="M16.7927 6.30728C15.9673 6.98724 15.4956 7.66721 15.0239 7.66721C14.5993 7.66721 13.9154 7.01069 13.8211 6.54175C13.7503 6.21349 14.4107 5.39285 14.788 5.3694C15.2833 5.3225 15.8257 5.81489 16.7927 6.30728Z" fill="#FBF6F3"/>
<path d="M26.085 9.28508C26.6982 10.0588 27.4057 10.6216 27.3114 10.9029C27.0991 11.4657 26.5095 12.0049 25.9671 12.3097C25.8256 12.3801 24.8114 11.5594 24.8586 11.2312C24.9293 10.645 25.519 10.1292 26.085 9.28508Z" fill="#FBF6F3"/>
<path d="M7.92483 14.9124C7.02861 15.4986 6.53333 16.0613 6.03806 16.0613C5.63712 16.0613 5.23618 15.3813 4.85883 15.0062C5.33052 14.5841 5.73146 13.9745 6.2739 13.7869C6.55692 13.6931 7.09937 14.3262 7.92483 14.9124Z" fill="#FBF6F3"/>
<path d="M24.4341 6.0494C23.5143 6.68247 22.9719 7.33899 22.5709 7.2452C22.0992 7.15141 21.5568 6.47145 21.4389 5.95561C21.3681 5.6977 22.0992 4.9005 22.4766 4.9005C22.9483 4.92394 23.4436 5.43978 24.4341 6.0494Z" fill="#FBF6F3"/>
<path d="M31.2029 14.1152C30.7076 13.3883 30.1887 12.9428 30.2359 12.6146C30.3538 12.0518 30.8491 11.5829 31.1793 11.067C31.6274 11.4891 32.3821 11.8877 32.4293 12.3801C32.5 12.7787 31.7925 13.318 31.2029 14.1152Z" fill="#FBF6F3"/>
<path d="M11.9107 25.8153C11.1324 26.4718 10.7551 27.058 10.3306 27.0814C9.90604 27.1049 9.43435 26.5422 9.00983 26.2373C9.38718 25.7684 9.69378 25.1119 10.1655 24.9009C10.4485 24.7602 11.0381 25.3464 11.9107 25.8153Z" fill="#FBF6F3"/>
<path d="M10.873 12.3801C11.6042 13.2945 12.3117 13.8104 12.2645 14.209C12.1702 14.7013 11.4627 15.0999 11.0146 15.522C10.6844 15.0999 10.1419 14.7013 10.0476 14.2324C9.95324 13.8338 10.4014 13.318 10.873 12.3801Z" fill="#FBF6F3"/>
<path d="M32.7595 17.4212C31.9104 17.9136 31.4152 18.4529 31.0142 18.406C30.5661 18.3591 30.1652 17.7495 29.7407 17.3743C30.1652 16.9288 30.5425 16.1785 31.0142 16.1082C31.4388 16.0613 31.9576 16.7882 32.7595 17.4212Z" fill="#FBF6F3"/>
<path d="M21.085 9.63676C20.1416 10.1526 19.5992 10.6684 19.1746 10.5981C18.7737 10.5512 18.1133 9.68366 18.2077 9.44919C18.4199 8.9568 19.0095 8.46441 19.5048 8.34717C19.7878 8.30028 20.2595 8.9568 21.085 9.63676Z" fill="#FBF6F3"/>
<path d="M9.12765 19.8831C8.34936 20.4224 7.85408 21.0086 7.45314 20.9617C7.02862 20.9148 6.34467 20.2348 6.34467 19.8597C6.36825 19.4611 7.02862 18.7811 7.45314 18.7577C7.87767 18.6873 8.34936 19.297 9.12765 19.8831Z" fill="#FBF6F3"/>
<path d="M10.2363 10.7622C9.64666 9.98848 8.98629 9.51954 9.05705 9.14439C9.15139 8.652 9.76459 8.22996 10.1419 7.78446C10.5193 8.18306 11.1561 8.55821 11.2268 9.02716C11.2976 9.4492 10.7316 9.94159 10.2363 10.7622Z" fill="#FBF6F3"/>
<path d="M35.9668 19.3908C35.2829 20.0004 34.7876 20.7507 34.4574 20.6804C33.9386 20.5631 33.5612 19.9066 33.1131 19.4846C33.4905 19.086 33.8442 18.4294 34.2688 18.406C34.7169 18.3825 35.2121 18.9218 35.9668 19.3908Z" fill="#FBF6F3"/>
</svg>
