<svg width="178" height="178" viewBox="0 0 178 178" fill="none" xmlns="http://www.w3.org/2000/svg">
<rect y="0.182739" width="177.15" height="177.15" rx="12.4559" fill="#794F42"/>
<path d="M25.6038 74.1787C25.6038 70.1058 26.5133 66.4679 28.3322 63.265C30.1907 60.0225 32.7017 57.5115 35.8651 55.7321C39.068 53.9132 42.6466 53.0037 46.6008 53.0037C51.2273 53.0037 55.2804 54.19 58.7601 56.5625C62.2398 58.9351 64.6717 62.2171 66.0557 66.4086H56.5062C55.5176 64.5105 54.1732 63.087 52.4729 62.138C50.7725 61.1494 48.7954 60.6552 46.5415 60.6552C44.1294 60.6552 41.9744 61.2088 40.0763 62.3159C38.2178 63.4231 36.7548 65.0048 35.6871 67.061C34.659 69.1172 34.145 71.4898 34.145 74.1787C34.145 76.8675 34.659 79.2401 35.6871 81.2963C36.7548 83.313 38.2178 84.8946 40.0763 86.0414C41.9744 87.1486 44.1294 87.7022 46.5415 87.7022C48.7954 87.7022 50.7725 87.2079 52.4729 86.2193C54.2127 85.2308 55.5572 83.7875 56.5062 81.8894H66.0557C64.6717 86.1205 62.2398 89.4223 58.7601 91.7948C55.3199 94.1278 51.2668 95.2943 46.6008 95.2943C42.6466 95.2943 39.068 94.4046 35.8651 92.6252C32.7017 90.8062 30.1907 88.2953 28.3322 85.0924C26.5133 81.8894 25.6038 78.2515 25.6038 74.1787ZM89.9933 95.3536C86.1182 95.3536 82.5594 94.4441 79.3169 92.6252C76.0744 90.8062 73.5042 88.2953 71.6061 85.0924C69.7081 81.8499 68.7591 78.1922 68.7591 74.1193C68.7591 70.086 69.7081 66.4679 71.6061 63.265C73.5042 60.0225 76.0744 57.4918 79.3169 55.6728C82.5594 53.8539 86.1182 52.9444 89.9933 52.9444C93.908 52.9444 97.4668 53.8539 100.67 55.6728C103.912 57.4918 106.463 60.0225 108.321 63.265C110.219 66.4679 111.168 70.086 111.168 74.1193C111.168 78.1922 110.219 81.8499 108.321 85.0924C106.463 88.2953 103.912 90.8062 100.67 92.6252C97.4273 94.4441 93.8685 95.3536 89.9933 95.3536ZM89.9933 87.7022C92.4845 87.7022 94.6791 87.1486 96.5771 86.0414C98.4752 84.8946 99.958 83.313 101.026 81.2963C102.093 79.2401 102.627 76.8478 102.627 74.1193C102.627 71.3909 102.093 69.0184 101.026 67.0017C99.958 64.9455 98.4752 63.3638 96.5771 62.2566C94.6791 61.1494 92.4845 60.5958 89.9933 60.5958C87.5022 60.5958 85.2878 61.1494 83.3502 62.2566C81.4522 63.3638 79.9693 64.9455 78.9017 67.0017C77.834 69.0184 77.3002 71.3909 77.3002 74.1193C77.3002 76.8478 77.834 79.2401 78.9017 81.2963C79.9693 83.313 81.4522 84.8946 83.3502 86.0414C85.2878 87.1486 87.5022 87.7022 89.9933 87.7022ZM129.446 53.5375C133.796 53.5375 137.612 54.3877 140.894 56.088C144.215 57.7883 146.766 60.2202 148.545 63.3836C150.364 66.5074 151.274 70.1453 151.274 74.2973C151.274 78.4492 150.364 82.0871 148.545 85.211C146.766 88.2953 144.215 90.6876 140.894 92.3879C137.612 94.0883 133.796 94.9384 129.446 94.9384H114.974V53.5375H129.446ZM129.15 88.1767C133.46 88.1767 136.801 86.9509 139.174 84.4992C141.586 82.0476 142.792 78.647 142.792 74.2973C142.792 69.9872 141.605 66.6063 139.233 64.1547C136.86 61.703 133.499 60.4772 129.15 60.4772H123.278V88.1767H129.15Z" fill="#007CFF"/>
<path d="M24.0468 111.748C24.0468 110.73 24.2742 109.821 24.7289 109.02C25.1936 108.209 25.8213 107.582 26.6121 107.137C27.4129 106.682 28.3075 106.455 29.2961 106.455C30.4527 106.455 31.466 106.751 32.3359 107.344C33.2058 107.938 33.8138 108.758 34.1598 109.806H31.7724C31.5253 109.331 31.1892 108.976 30.7641 108.738C30.339 108.491 29.8447 108.368 29.2812 108.368C28.6782 108.368 28.1395 108.506 27.665 108.783C27.2003 109.06 26.8346 109.455 26.5677 109.969C26.3106 110.483 26.1821 111.076 26.1821 111.748C26.1821 112.421 26.3106 113.014 26.5677 113.528C26.8346 114.032 27.2003 114.427 27.665 114.714C28.1395 114.991 28.6782 115.129 29.2812 115.129C29.8447 115.129 30.339 115.006 30.7641 114.759C31.1991 114.512 31.5352 114.151 31.7724 113.676H34.1598C33.8138 114.734 33.2058 115.559 32.3359 116.153C31.4759 116.736 30.4626 117.027 29.2961 117.027C28.3075 117.027 27.4129 116.805 26.6121 116.36C25.8213 115.905 25.1936 115.278 24.7289 114.477C24.2742 113.676 24.0468 112.767 24.0468 111.748ZM41.6864 114.966H37.5641L36.882 116.938H34.7022L38.4241 106.573H40.8411L44.5631 116.938H42.3685L41.6864 114.966ZM41.1377 113.35L39.6252 108.976L38.1127 113.35H41.1377ZM48.9348 117.042C48.2131 117.042 47.5607 116.919 46.9774 116.672C46.4041 116.424 45.9493 116.068 45.6132 115.604C45.2771 115.139 45.1041 114.591 45.0942 113.958H47.3185C47.3481 114.393 47.4964 114.739 47.7633 114.996C48.0401 115.253 48.4158 115.381 48.8903 115.381C49.3747 115.381 49.7553 115.263 50.0321 115.026C50.3089 114.788 50.4473 114.472 50.4473 114.077C50.4473 113.77 50.3534 113.518 50.1655 113.32C49.9777 113.123 49.7405 112.969 49.4538 112.861C49.177 112.742 48.7914 112.613 48.2972 112.475C47.6249 112.277 47.0763 112.085 46.6512 111.897C46.236 111.699 45.8752 111.407 45.5687 111.022C45.2722 110.626 45.1239 110.103 45.1239 109.45C45.1239 108.837 45.2771 108.303 45.5836 107.849C45.89 107.394 46.32 107.048 46.8736 106.811C47.4272 106.563 48.0599 106.44 48.7717 106.44C49.8393 106.44 50.7043 106.702 51.3666 107.226C52.0389 107.74 52.4096 108.462 52.4788 109.391H50.1952C50.1754 109.005 50.0222 108.699 49.7355 108.471C49.4587 108.234 49.088 108.116 48.6234 108.116C48.2181 108.116 47.8919 108.224 47.6447 108.442C47.4075 108.649 47.2888 108.961 47.2888 109.376C47.2888 109.653 47.3778 109.885 47.5557 110.073C47.7436 110.251 47.9709 110.399 48.2378 110.518C48.5146 110.626 48.9002 110.755 49.3945 110.903C50.0667 111.101 50.6153 111.299 51.0404 111.496C51.4655 111.694 51.8313 111.991 52.1377 112.386C52.4442 112.782 52.5974 113.301 52.5974 113.943C52.5974 114.497 52.4541 115.011 52.1674 115.485C51.8807 115.96 51.4606 116.34 50.907 116.627C50.3534 116.904 49.696 117.042 48.9348 117.042ZM62.3897 106.588V116.938H60.3137V112.505H55.88V116.938H53.8041V106.588H55.88V110.874H60.3137V106.588H62.3897ZM72.0189 117.042C71.0501 117.042 70.1604 116.815 69.3498 116.36C68.5392 115.905 67.8966 115.278 67.4221 114.477C66.9476 113.666 66.7103 112.752 66.7103 111.734C66.7103 110.725 66.9476 109.821 67.4221 109.02C67.8966 108.209 68.5392 107.577 69.3498 107.122C70.1604 106.667 71.0501 106.44 72.0189 106.44C72.9976 106.44 73.8873 106.667 74.688 107.122C75.4986 107.577 76.1362 108.209 76.6009 109.02C77.0754 109.821 77.3126 110.725 77.3126 111.734C77.3126 112.752 77.0754 113.666 76.6009 114.477C76.1362 115.278 75.4986 115.905 74.688 116.36C73.8774 116.815 72.9877 117.042 72.0189 117.042ZM72.0189 115.129C72.6417 115.129 73.1903 114.991 73.6648 114.714C74.1393 114.427 74.5101 114.032 74.777 113.528C75.0439 113.014 75.1773 112.416 75.1773 111.734C75.1773 111.052 75.0439 110.458 74.777 109.954C74.5101 109.44 74.1393 109.045 73.6648 108.768C73.1903 108.491 72.6417 108.353 72.0189 108.353C71.3961 108.353 70.8425 108.491 70.3581 108.768C69.8836 109.045 69.5129 109.44 69.246 109.954C68.9791 110.458 68.8456 111.052 68.8456 111.734C68.8456 112.416 68.9791 113.014 69.246 113.528C69.5129 114.032 69.8836 114.427 70.3581 114.714C70.8425 114.991 71.3961 115.129 72.0189 115.129ZM87.1165 116.938H85.0405L80.3399 109.836V116.938H78.264V106.573H80.3399L85.0405 113.691V106.573H87.1165V116.938ZM95.5676 106.588C96.6551 106.588 97.609 106.801 98.4295 107.226C99.2599 107.651 99.8975 108.259 100.342 109.05C100.797 109.831 101.024 110.74 101.024 111.778C101.024 112.816 100.797 113.726 100.342 114.507C99.8975 115.278 99.2599 115.876 98.4295 116.301C97.609 116.726 96.6551 116.938 95.5676 116.938H91.9495V106.588H95.5676ZM95.4935 115.248C96.571 115.248 97.4064 114.942 97.9995 114.329C98.6025 113.716 98.904 112.866 98.904 111.778C98.904 110.701 98.6075 109.855 98.0143 109.242C97.4212 108.63 96.5809 108.323 95.4935 108.323H94.0255V115.248H95.4935ZM104.061 108.204V110.888H107.546V112.49H104.061V115.292H107.991V116.938H101.985V106.573H107.991V108.204H104.061ZM111.36 115.352H114.771V116.938H109.284V106.588H111.36V115.352ZM117.573 106.588V116.938H115.497V106.588H117.573ZM120.44 106.588L123.272 114.818L126.119 106.588H128.328L124.532 116.938H122.012L118.215 106.588H120.44ZM131.056 108.204V110.888H134.541V112.49H131.056V115.292H134.985V116.938H128.98V106.573H134.985V108.204H131.056ZM141.617 116.938L139.334 112.905H138.355V116.938H136.279V106.588H140.164C140.965 106.588 141.647 106.732 142.21 107.018C142.774 107.295 143.194 107.676 143.471 108.16C143.757 108.635 143.901 109.168 143.901 109.761C143.901 110.444 143.703 111.061 143.308 111.615C142.912 112.159 142.324 112.534 141.543 112.742L144.019 116.938H141.617ZM138.355 111.363H140.09C140.653 111.363 141.073 111.225 141.35 110.948C141.627 110.671 141.765 110.29 141.765 109.806C141.765 109.322 141.627 108.946 141.35 108.679C141.073 108.402 140.653 108.264 140.09 108.264H138.355V111.363ZM153.415 106.588L149.915 113.335V116.938H147.839V113.335L144.325 106.588H146.668L148.877 111.304L151.072 106.588H153.415Z" fill="#002CB8"/>
</svg>
